<svg width="59" height="65" viewBox="0 0 59 65" fill="none" xmlns="http://www.w3.org/2000/svg">
<g id="Layer 2">
<path id="Vector" d="M0 58.5V65H23.5345V58.5C23.5276 56.4763 23.0933 54.4823 22.2659 52.6768C21.4385 50.8713 20.241 49.3041 18.7688 48.1C19.9355 46.4205 20.5757 44.3671 20.5927 42.25C20.5927 39.6641 19.6629 37.1842 18.0078 35.3557C16.3527 33.5272 14.1079 32.5 11.7672 32.5C9.42659 32.5 7.18181 33.5272 5.52672 35.3557C3.87163 37.1842 2.94181 39.6641 2.94181 42.25C2.95875 44.3671 3.59897 46.4205 4.76573 48.1C3.29346 49.3041 2.09596 50.8713 1.2686 52.6768C0.441228 54.4823 0.00683418 56.4763 0 58.5Z" fill="#6E5547"/>
<path id="Vector_2" d="M54.0705 15.6C55.2373 13.9205 55.8775 11.8671 55.8944 9.75C55.8944 7.16414 54.9646 4.68419 53.3095 2.85571C51.6544 1.02723 49.4096 0 47.069 0C44.7283 0 42.4836 1.02723 40.8285 2.85571C39.1734 4.68419 38.2436 7.16414 38.2436 9.75C38.2605 11.8671 38.9007 13.9205 40.0675 15.6C38.5952 16.8041 37.3977 18.3713 36.5704 20.1768C35.743 21.9823 35.3086 23.9763 35.3018 26V32.5H58.8362V26C58.8294 23.9763 58.395 21.9823 57.5676 20.1768C56.7403 18.3713 55.5428 16.8041 54.0705 15.6Z" fill="#6E5547"/>
<path id="Vector_3" d="M8.8252 29.25H14.7088V16.25H32.3597V9.75H8.8252V29.25Z" fill="#6E5547"/>
<path id="Vector_4" d="M44.1274 48.75H26.4766V55.25H50.011V35.75H44.1274V48.75Z" fill="#6E5547"/>
</g>
</svg>
