<svg width="65" height="65" viewBox="0 0 65 65" fill="none" xmlns="http://www.w3.org/2000/svg">
<path d="M32.5 4.0625C26.8756 4.0625 21.3775 5.73033 16.701 8.85508C12.0245 11.9798 8.37956 16.4212 6.22719 21.6174C4.07482 26.8137 3.51166 32.5315 4.60893 38.0479C5.7062 43.5642 8.41461 48.6313 12.3917 52.6083C16.3687 56.5854 21.4358 59.2938 26.9521 60.3911C32.4685 61.4883 38.1863 60.9252 43.3826 58.7728C48.5788 56.6205 53.0202 52.9755 56.1449 48.299C59.2697 43.6225 60.9375 38.1244 60.9375 32.5C60.9375 24.9579 57.9414 17.7247 52.6084 12.3917C47.2753 7.05858 40.0421 4.0625 32.5 4.0625ZM32.5 48.75C27.8851 48.6269 23.4304 47.0312 19.7869 44.1962C16.1433 41.3611 13.5019 37.4352 12.2485 32.992L12.125 32.5L12.248 32.008C13.5015 27.5648 16.143 23.6388 19.7866 20.8037C23.4302 17.9686 27.885 16.373 32.5 16.25C37.115 16.3731 41.5696 17.9688 45.2132 20.8038C48.8567 23.6389 51.4981 27.5648 52.7516 32.008L52.8751 32.5L52.752 32.992C51.4985 37.4352 48.857 41.3612 45.2134 44.1963C41.5698 47.0314 37.115 48.627 32.5 48.75Z" fill="#6E5547"/>
<path d="M32.4998 20.3125C28.8709 20.4104 25.3627 21.6368 22.4631 23.8211C19.5635 26.0054 17.4167 29.039 16.3213 32.5C17.4167 35.961 19.5635 38.9946 22.4631 41.1789C25.3627 43.3632 28.8709 44.5896 32.4998 44.6875C36.1287 44.5896 39.6369 43.3632 42.5365 41.1789C45.436 38.9946 47.5828 35.961 48.6783 32.5C47.5828 29.039 45.436 26.0054 42.5365 23.8211C39.6369 21.6368 36.1287 20.4104 32.4998 20.3125ZM32.4998 40.625C30.8928 40.625 29.3219 40.1485 27.9858 39.2557C26.6496 38.3629 25.6082 37.094 24.9933 35.6093C24.3783 34.1247 24.2174 32.491 24.5309 30.9149C24.8444 29.3388 25.6182 27.8911 26.7545 26.7548C27.8908 25.6185 29.3386 24.8446 30.9147 24.5311C32.4908 24.2176 34.1244 24.3785 35.6091 24.9935C37.0937 25.6084 38.3627 26.6498 39.2555 27.986C40.1483 29.3221 40.6248 30.893 40.6248 32.5C40.6224 34.6541 39.7656 36.7194 38.2424 38.2426C36.7192 39.7658 34.6539 40.6226 32.4998 40.625Z" fill="#6E5547"/>
<path d="M32.5 36.5625C34.7437 36.5625 36.5625 34.7437 36.5625 32.5C36.5625 30.2563 34.7437 28.4375 32.5 28.4375C30.2563 28.4375 28.4375 30.2563 28.4375 32.5C28.4375 34.7437 30.2563 36.5625 32.5 36.5625Z" fill="#6E5547"/>
</svg>
