<svg width="50" height="63" viewBox="0 0 50 63" fill="none" xmlns="http://www.w3.org/2000/svg">
<g id="icons">
<path id="password" d="M44.2969 26.2531H34.4531H14.7656V18.9031C14.7656 13.3906 18.457 8.40306 23.625 7.87806C29.5313 7.35306 34.4531 12.3406 34.4531 18.3781C34.4531 19.9531 35.4375 21.0031 36.9141 21.0031H39.375C40.8516 21.0031 41.8359 19.9531 41.8359 18.3781C41.8359 8.40306 34.4531 0.26556 25.1016 0.00306018C15.5039 -0.25944 7.38281 8.14056 7.38281 18.3781V26.2531H4.92188C2.21484 26.2531 0 28.6156 0 31.5031V49.8781C0 57.2281 5.41406 63.0031 12.3047 63.0031H36.9141C43.8047 63.0031 49.2188 57.2281 49.2188 49.8781V31.5031C49.2188 28.6156 47.0039 26.2531 44.2969 26.2531ZM27.0703 46.4656V49.8781C27.0703 51.1906 25.8398 52.5031 24.6094 52.5031C23.3789 52.5031 22.1484 51.1906 22.1484 49.8781V46.4656C20.6719 45.6781 19.6875 43.8406 19.6875 42.0031C19.6875 39.1156 21.9023 36.7531 24.6094 36.7531C27.3164 36.7531 29.5312 39.1156 29.5312 42.0031C29.5312 43.8406 28.5469 45.6781 27.0703 46.4656Z" fill="#6E5547"/>
</g>
</svg>
