<svg width="57" height="64" viewBox="0 0 57 64" fill="none" xmlns="http://www.w3.org/2000/svg">
<path id="Vector" d="M57 45V3C57 1.3375 55.6386 0 53.9464 0H12.2143C5.47098 0 0 5.375 0 12V52C0 58.625 5.47098 64 12.2143 64H53.9464C55.6386 64 57 62.6625 57 61V59C57 58.0625 56.5547 57.2125 55.8676 56.6625C55.3333 54.7375 55.3333 49.25 55.8676 47.325C56.5547 46.7875 57 45.9375 57 45ZM16.2857 16.75C16.2857 16.3375 16.6292 16 17.0491 16H44.0223C44.4422 16 44.7857 16.3375 44.7857 16.75V19.25C44.7857 19.6625 44.4422 20 44.0223 20H17.0491C16.6292 20 16.2857 19.6625 16.2857 19.25V16.75ZM16.2857 24.75C16.2857 24.3375 16.6292 24 17.0491 24H44.0223C44.4422 24 44.7857 24.3375 44.7857 24.75V27.25C44.7857 27.6625 44.4422 28 44.0223 28H17.0491C16.6292 28 16.2857 27.6625 16.2857 27.25V24.75ZM48.5263 56H12.2143C9.96228 56 8.14286 54.2125 8.14286 52C8.14286 49.8 9.975 48 12.2143 48H48.5263C48.2846 50.1375 48.2846 53.8625 48.5263 56Z" fill="#6E5547"/>
</svg>
