<svg width="59" height="60" viewBox="0 0 59 60" fill="none" xmlns="http://www.w3.org/2000/svg">
<g clip-path="url(#clip0_203_62)">
<path d="M17.2348 0.5H4.92424C2.20466 0.5 0 2.92512 0 5.91667V19.4583C0 22.4499 2.20466 24.875 4.92424 24.875H17.2348C19.9544 24.875 22.1591 22.4499 22.1591 19.4583V5.91667C22.1591 2.92512 19.9544 0.5 17.2348 0.5Z" fill="#6E5547"/>
<path d="M49.394 0.5H37.0834C34.3638 0.5 32.1592 2.92512 32.1592 5.91667V19.4583C32.1592 22.4499 34.3638 24.875 37.0834 24.875H49.394C52.1136 24.875 54.3183 22.4499 54.3183 19.4583V5.91667C54.3183 2.92512 52.1136 0.5 49.394 0.5Z" fill="#6E5547"/>
<path d="M17.2348 34.875H4.92424C2.20466 34.875 0 37.3001 0 40.2917V53.8333C0 56.8249 2.20466 59.25 4.92424 59.25H17.2348C19.9544 59.25 22.1591 56.8249 22.1591 53.8333V40.2917C22.1591 37.3001 19.9544 34.875 17.2348 34.875Z" fill="#6E5547"/>
<path d="M49.394 34.875H37.0834C34.3638 34.875 32.1592 37.3001 32.1592 40.2917V53.8333C32.1592 56.8249 34.3638 59.25 37.0834 59.25H49.394C52.1136 59.25 54.3183 56.8249 54.3183 53.8333V40.2917C54.3183 37.3001 52.1136 34.875 49.394 34.875Z" fill="#6E5547"/>
</g>
<defs>
<clipPath id="clip0_203_62">
<rect width="58.3182" height="58.75" fill="white" transform="translate(0 0.5)"/>
</clipPath>
</defs>
</svg>
